<svg width="153" height="37" viewBox="0 0 153 37" fill="none" xmlns="http://www.w3.org/2000/svg">
<path d="M53.6231 28.0235L52.9178 25.5443H44.7749L43.1933 28.0235H37.5938L48.1945 12.614H53.7086L58.838 28.0235H53.6017H53.6231ZM46.5916 22.1675H51.9561L50.3959 16.6534L46.5916 22.1675V22.1675ZM59.6074 24.3688L59.7998 23.0651H64.5231L64.4162 23.7063C64.3521 24.0483 64.3949 24.3047 64.5231 24.4543C64.6513 24.6039 64.8864 24.6681 65.2498 24.6681H72.1103C72.4737 24.6681 72.7301 24.6039 72.8797 24.4543C73.0293 24.3047 73.1362 24.0696 73.2003 23.6849L73.2858 23.1292C73.3499 22.7659 73.3286 22.5094 73.2217 22.3598C73.1148 22.2102 72.9011 22.1461 72.5591 22.1034L63.9033 21.569C62.7064 21.4836 61.8515 21.1416 61.3386 20.5645C60.8257 19.9875 60.676 19.1112 60.8898 17.9357L61.2317 15.8626C61.4455 14.6657 61.8515 13.8108 62.45 13.3193C63.0484 12.8277 63.946 12.5712 65.1429 12.5712H76.0642C78.4366 12.5712 79.4197 13.7895 79.035 16.2259L78.8854 17.2945H74.1835L74.2476 16.8457C74.2903 16.4824 74.2476 16.2259 74.1193 16.0763C73.9911 15.9267 73.756 15.8626 73.3927 15.8626H67.045C66.7031 15.8626 66.4466 15.9267 66.2756 16.0763C66.126 16.2259 66.0192 16.461 65.955 16.8244L65.9123 17.1022C65.8482 17.4655 65.8696 17.722 65.9764 17.8289C66.0619 17.9571 66.297 18.0212 66.6176 18.064L75.2735 18.6196C76.4703 18.7051 77.3252 19.0471 77.8382 19.6242C78.3511 20.2012 78.5007 21.0775 78.287 22.2743L77.8595 24.6253C77.6458 25.8222 77.2611 26.6771 76.6627 27.19C76.0642 27.6816 75.1666 27.9381 73.9911 27.9381H62.5568C61.36 27.9381 60.5264 27.6388 60.0135 27.019C59.5006 26.3992 59.3509 25.5016 59.5647 24.2834L59.6074 24.3688ZM95.8338 12.614C96.9879 12.614 97.8214 12.9346 98.3344 13.5544C98.8473 14.1742 98.9969 15.0932 98.8046 16.2687L98.6336 17.4014C98.484 18.2136 98.2489 18.8334 97.9497 19.2822C97.6505 19.731 97.2016 20.0302 96.6246 20.1798C97.8214 20.6073 98.2703 21.6545 98.0138 23.3002L97.7787 24.7322C97.5863 25.929 97.2016 26.7839 96.6032 27.2755C96.0048 27.7671 95.1071 28.0235 93.9103 28.0235H79.2274L81.9844 12.614H95.8552H95.8338ZM86.2162 16.1618L85.7673 18.7051H92.5852C92.9271 18.7051 93.1836 18.641 93.3332 18.5128C93.4828 18.3845 93.5897 18.1281 93.6538 17.7647L93.7607 17.1449C93.8248 16.803 93.8034 16.5465 93.6752 16.3755C93.5469 16.2259 93.2905 16.1404 92.9271 16.1404H86.1948L86.2162 16.1618ZM93.2905 22.6163C93.3546 22.253 93.3118 21.9965 93.1836 21.8255C93.0554 21.6759 92.8203 21.5904 92.4569 21.5904H85.2758L84.7628 24.4757H92.0295C92.3715 24.4757 92.6279 24.4116 92.7775 24.2834C92.9271 24.1551 93.034 23.8986 93.0981 23.5353L93.2691 22.6163H93.2905ZM113.381 28.0235L112.675 25.5443H104.532L102.951 28.0235H97.3512L107.952 12.614H113.466L118.595 28.0235H113.359H113.381ZM106.349 22.1675H111.714L110.153 16.6534L106.349 22.1675ZM125.178 23.8132H135.501L134.732 28.0235H119.6L122.357 12.614H127.209L125.178 23.8132ZM141.678 23.8132H152.001L151.231 28.0235H136.1L138.857 12.614H143.708L141.678 23.8132Z" fill="#003056"/>
<path fill-rule="evenodd" clip-rule="evenodd" d="M22.9973 17.4869C20.8814 17.1877 19.3853 16.6961 16.8848 16.4824L21.202 20.9706C21.0951 21.4836 18.8297 25.6298 18.7014 26.4847C19.5563 26.0573 20.8814 25.1383 22.2065 24.4971C22.5912 24.3047 23.0828 24.0055 23.4675 23.8773C23.5957 24.1551 23.9163 24.604 24.0873 24.8818C24.5361 25.5871 24.9422 26.2924 25.2842 27.0618L25.733 28.1732C25.733 28.1945 25.7544 28.1945 25.7544 28.2159C25.7544 28.2159 25.7757 28.2373 25.7757 28.2587C25.9253 27.3396 26.1818 26.442 26.3314 25.4802C26.481 24.433 26.5451 23.4498 26.6306 22.4026L31.5463 20.2653C31.0334 19.8593 27.5069 18.6197 26.6306 18.4059C26.4596 17.3587 26.4383 16.1618 26.31 15.0718C26.2245 14.4307 25.9894 12.3789 25.7544 11.9514C25.4338 12.4216 23.5102 16.9312 23.0187 17.4655L22.9973 17.4869Z" fill="#E31E24"/>
<path fill-rule="evenodd" clip-rule="evenodd" d="M8.33559 11.1606C6.90363 10.1989 6.75402 10.0493 5.64265 9.0234C5.47167 8.87379 5.62128 8.93791 5.4503 8.91654C5.30069 10.8614 5.2152 11.524 5.59991 13.5971C5.70677 14.1955 5.25795 14.5161 4.65952 15.3497C4.1252 16.1191 2.90697 18.064 2.67188 18.9402C3.7405 18.5769 5.36481 17.7861 6.62579 17.6151L7.86539 20.5645C8.10049 21.0561 8.31421 21.5049 8.54931 21.9751C8.72029 22.3171 9.08362 23.0651 9.27598 23.3002C9.31872 22.1675 9.34009 21.0989 9.46833 20.0089C9.53245 19.4532 9.81029 17.3587 10.0026 16.9953C11.3705 16.6534 14.6191 16.5465 16.1579 16.3969C15.5167 15.7985 11.627 13.4261 11.0926 12.9773C11.1995 12.2506 12.3536 9.60046 12.7811 8.72418C12.9948 8.27536 13.294 7.82654 13.4222 7.37772C12.4391 7.86928 9.89578 9.8783 8.95539 10.6691C8.72029 10.8614 8.57068 11.0538 8.31421 11.182L8.33559 11.1606Z" fill="#E31E24"/>
<path fill-rule="evenodd" clip-rule="evenodd" d="M11.7979 30.1394C11.4131 30.5882 10.4514 31.1012 10.0239 32.127C10.6865 32.3408 12.4177 32.7255 13.358 32.9819C13.7855 33.0888 13.6573 33.1529 14.0847 33.6445C14.8327 34.5208 16.0082 35.8245 17.0555 36.3374C16.8845 36.0809 16.4784 35.7817 16.2006 35.2688C15.9655 34.8413 15.8373 34.3284 15.7731 33.7727C16.7776 34.0292 17.5898 34.6062 18.402 34.9268C18.0814 34.1788 16.8631 32.5545 16.2647 31.8278C16.1151 31.6568 15.9869 31.6355 16.051 31.3576C16.3288 29.947 17.8676 27.4892 17.9104 27.2755C16.051 28.0021 15.709 28.0876 13.8069 28.9639C13.6145 28.8143 13.5077 28.6006 13.3153 28.4296L10.0239 24.8604C9.93845 24.7535 9.83158 24.6894 9.74609 24.6039C9.81021 25.2451 10.4086 26.848 10.6437 27.5106C11.0071 28.4723 11.4559 29.3059 11.7979 30.1821V30.1394Z" fill="#E31E24"/>
<path fill-rule="evenodd" clip-rule="evenodd" d="M26.9502 4.36419C25.6465 4.19321 24.3855 3.91537 23.0391 3.82988L25.9885 5.73203C26.2449 5.90301 26.7365 6.26634 26.9716 6.3732C26.8861 7.89065 26.4587 9.08751 26.2022 10.4767C26.6296 10.3271 28.9592 8.72418 29.4936 8.42496L31.4385 10.1561C31.759 10.4767 31.9941 10.8187 32.3361 11.1179L33.191 12.0797C33.0414 11.2675 32.0583 9.30124 31.6094 8.46771C31.3957 8.083 31.1179 7.67693 30.9683 7.33497C31.353 6.90752 31.93 6.50144 32.0796 5.94575C31.8445 5.7534 30.6904 5.34732 30.3271 5.21909C28.7241 4.70615 29.4294 5.09085 28.0616 3.70164C27.5059 3.14596 27.4204 3.01772 26.7151 2.48341C26.5655 2.35517 26.1167 2.05596 26.0098 1.9491C26.1808 2.44066 26.6938 2.67576 26.9289 4.36419H26.9502Z" fill="#E31E24"/>
<path fill-rule="evenodd" clip-rule="evenodd" d="M12.246 1.88497L15.174 2.0987C15.174 2.2483 14.7038 3.53065 14.6183 3.82987C14.4473 4.44967 14.2977 5.15496 14.2123 5.79614C14.4901 5.6679 16.0503 3.93673 16.5205 3.53065C16.6701 3.40242 16.7983 3.31693 16.9266 3.18869C17.8028 2.35517 17.5464 2.46203 18.4226 2.61164C18.8501 2.69713 19.2989 2.78262 19.7264 2.86811C20.5813 3.03909 21.4148 3.29556 22.2483 3.46654C22.1414 3.31693 22.2056 3.40242 22.0987 3.29556L19.2775 1.07282C19.5554 0.794975 20.1752 0.346152 20.3462 0.0469372C19.8973 0.0469372 18.2517 0.32478 18.0166 0.196545C17.8456 0.111055 17.8242 -0.145415 17.0334 0.111055C16.5846 0.260662 16.4777 0.388897 16.1785 0.602622C15.9221 0.794974 14.597 1.05144 14.1481 1.20105C13.5283 1.3934 12.7803 1.60713 12.2246 1.84223L12.246 1.88497Z" fill="#E31E24"/>
<path fill-rule="evenodd" clip-rule="evenodd" d="M15.3665 37C15.0032 36.8077 13.6781 36.5512 13.1438 36.1237L15.7726 36.6581C15.281 36.4016 14.4047 36.2092 13.8063 35.9741C13.2079 35.7604 11.4767 35.0979 11.0706 34.6918C10.8569 34.4781 10.6218 34.2643 10.4081 34.0079C9.95925 33.4736 9.7669 33.0247 9.40357 32.3408C9.21122 32.4477 9.08298 32.5545 8.89063 32.7255L8.42043 33.2598C7.97161 33.0247 6.9671 32.2553 6.53965 31.9347L4.78711 30.4387C5.38554 31.4432 7.05259 32.9606 7.95024 33.6659C8.35632 33.9865 8.16396 33.8155 8.33494 34.3285C8.42043 34.5849 8.63416 34.8628 8.82651 34.9483C9.21122 35.1406 9.98063 35.2902 10.4294 35.4398C11.7973 35.8245 13.6994 36.9145 15.3237 37H15.3665Z" fill="#E31E24"/>
<path fill-rule="evenodd" clip-rule="evenodd" d="M3.4196 28.8143L2.24411 26.8481C1.85941 26.1428 1.56019 25.4802 1.26098 24.6894C0.8549 23.5994 0.748037 23.4071 1.00451 22.1247C1.09 21.6759 1.21823 21.3126 1.36784 20.9279C1.53882 20.5218 1.75254 20.2012 1.88078 19.8165C1.49607 19.7951 0.42745 19.7096 0.149607 19.5387L0.0213725 18.0212C0 18.3204 0 18.641 0 18.9616C0 19.56 0.042745 20.1798 0.08549 20.7569C0.277842 23.2575 1.09 26.4206 2.84254 28.28C3.07764 28.5365 3.09901 28.6647 3.35548 28.7929L3.4196 28.8143Z" fill="#E31E24"/>
<path fill-rule="evenodd" clip-rule="evenodd" d="M3.89062 7.6342L4.01886 7.54871C4.01886 7.54871 4.04023 7.52734 4.06161 7.50596C4.40356 7.16401 4.51043 6.97165 4.9165 6.58695C4.87376 7.31361 4.85239 7.65557 5.25846 8.21126L5.3867 7.97616C5.81415 6.82205 6.32709 5.26185 7.37434 4.42833C7.63081 4.23597 7.9514 4.00088 8.22924 3.8299C9.46885 3.03911 9.76806 2.88951 10.9008 2.24833L11.0077 2.18421C11.0077 2.18421 11.029 2.16284 11.0504 2.16284C9.34061 2.44068 7.99414 3.5948 6.96826 4.38558C6.34846 4.87715 4.23258 6.92891 3.912 7.65557L3.89062 7.6342Z" fill="#E31E24"/>
</svg>
